<svg xmlns="http://www.w3.org/2000/svg" width="1153" height="847" viewBox="0 0 1153 847"><rect width="1153" height="847" fill="#f7f7f8"/><defs></defs><ellipse cx="47" cy="53" rx="5.5" ry="5.5" fill="#5b5bd6" stroke="#5b5bd6" stroke-width="1"/><text x="64" y="58.35" text-anchor="start" font-family="ui-monospace,Menlo,monospace" font-size="13" fill="#1f1f2e">WORK   ↓</text><ellipse cx="47" cy="85" rx="5.5" ry="5.5" fill="#0f9d76" stroke="#0f9d76" stroke-width="1"/><text x="64" y="90.35" text-anchor="start" font-family="ui-monospace,Menlo,monospace" font-size="13" fill="#1f1f2e">RESULTS   ↑</text><rect x="463" y="30" width="257" height="108" rx="10" fill="#ffffff" stroke="#1f1f2e" stroke-width="1.8"/><line x1="463" y1="56" x2="720" y2="56" stroke="#1f1f2e" stroke-width="1.2" stroke-linecap="round"/><ellipse cx="479" cy="43" rx="4" ry="4" fill="#5b5bd6" stroke="#5b5bd6" stroke-width="1"/><ellipse cx="493" cy="43" rx="4" ry="4" fill="#0f9d76" stroke="#0f9d76" stroke-width="1"/><ellipse cx="507" cy="43" rx="4" ry="4" fill="#8a8a99" stroke="#8a8a99" stroke-width="1"/><text x="481" y="75.875" text-anchor="start" font-family="ui-monospace,Menlo,monospace" font-size="12.5" fill="#1f1f2e">POST /v1/chat/completions</text><text x="481" y="96.875" text-anchor="start" font-family="ui-monospace,Menlo,monospace" font-size="12.5" fill="#1f1f2e">POST /v1/batches</text><text x="481" y="117.925" text-anchor="start" font-family="ui-monospace,Menlo,monospace" font-size="11.5" fill="#8a8a99"># one request, or a million</text><text x="737" y="68.725" text-anchor="start" font-family="ui-monospace,Menlo,monospace" font-size="15.5" fill="#1f1f2e">CLIENT  ·  ANY OPENAI SDK</text><text x="737" y="90.925" text-anchor="start" font-family="ui-monospace,Menlo,monospace" font-size="11.5" fill="#8a8a99">curl · openai-python · langchain</text><line x1="592" y1="142" x2="592" y2="334" stroke="#b9b9c9" stroke-width="1.5" stroke-linecap="round" stroke-dasharray="8 6"/><ellipse cx="587.5" cy="149.68" rx="5.5" ry="5.5" fill="#5b5bd6" stroke="#5b5bd6" stroke-width="1"/><ellipse cx="596.5" cy="184.24" rx="5.5" ry="5.5" fill="#0f9d76" stroke="#0f9d76" stroke-width="1"/><ellipse cx="587.5" cy="218.8" rx="5.5" ry="5.5" fill="#5b5bd6" stroke="#5b5bd6" stroke-width="1"/><ellipse cx="596.5" cy="251.44" rx="5.5" ry="5.5" fill="#0f9d76" stroke="#0f9d76" stroke-width="1"/><ellipse cx="587.5" cy="286" rx="5.5" ry="5.5" fill="#5b5bd6" stroke="#5b5bd6" stroke-width="1"/><ellipse cx="596.5" cy="318.64" rx="5.5" ry="5.5" fill="#0f9d76" stroke="#0f9d76" stroke-width="1"/><rect x="484" y="336" width="216" height="92" rx="10" fill="#ecebfb" stroke="#ecebfb" stroke-width="1"/><rect x="493" y="346" width="198" height="72" rx="10" fill="#ffffff" stroke="#1f1f2e" stroke-width="2"/><rect x="502" y="361" width="5" height="42" rx="0" fill="#5b5bd6" stroke="#5b5bd6" stroke-width="1"/><text x="599" y="384.05" text-anchor="middle" font-family="ui-monospace,Menlo,monospace" font-size="19" fill="#1f1f2e">FLEETLM</text><text x="599" y="401.975" text-anchor="middle" font-family="ui-monospace,Menlo,monospace" font-size="10.5" fill="#8a8a99">ORCHESTRATOR</text><text x="717" y="372.825" text-anchor="start" font-family="ui-monospace,Menlo,monospace" font-size="13.5" fill="#1f1f2e">COORDINATES  ·  NEVER COMPUTES</text><text x="717" y="394.925" text-anchor="start" font-family="ui-monospace,Menlo,monospace" font-size="11.5" fill="#8a8a99">work queue · node registry · least-loaded routing</text><text x="30" y="548.825" text-anchor="start" font-family="ui-monospace,Menlo,monospace" font-size="13.5" fill="#1f1f2e">EACH NODE DIALS OUT</text><text x="30" y="570.925" text-anchor="start" font-family="ui-monospace,Menlo,monospace" font-size="11.5" fill="#8a8a99">one outbound WebSocket</text><text x="30" y="588.925" text-anchor="start" font-family="ui-monospace,Menlo,monospace" font-size="11.5" fill="#8a8a99">no open ports · no static IP</text><text x="30" y="606.925" text-anchor="start" font-family="ui-monospace,Menlo,monospace" font-size="11.5" fill="#8a8a99">nodes pull work at their pace</text><line x1="592" y1="432" x2="178" y2="662" stroke="#b9b9c9" stroke-width="1.5" stroke-linecap="round" stroke-dasharray="8 6"/><ellipse cx="548.4146068096961" cy="451.0662922574531" rx="5.5" ry="5.5" fill="#5b5bd6" stroke="#5b5bd6" stroke-width="1"/><ellipse cx="478.2653931903038" cy="500.33370774254695" rx="5.5" ry="5.5" fill="#0f9d76" stroke="#0f9d76" stroke-width="1"/><ellipse cx="399.37460680969616" cy="533.866292257453" rx="5.5" ry="5.5" fill="#5b5bd6" stroke="#5b5bd6" stroke-width="1"/><ellipse cx="329.22539319030386" cy="583.133707742547" rx="5.5" ry="5.5" fill="#0f9d76" stroke="#0f9d76" stroke-width="1"/><ellipse cx="250.3346068096962" cy="616.666292257453" rx="5.5" ry="5.5" fill="#5b5bd6" stroke="#5b5bd6" stroke-width="1"/><line x1="592" y1="432" x2="385" y2="662" stroke="#b9b9c9" stroke-width="1.5" stroke-linecap="round" stroke-dasharray="8 6"/><ellipse cx="567.9551763418877" cy="451.989658707699" rx="5.5" ry="5.5" fill="#5b5bd6" stroke="#5b5bd6" stroke-width="1"/><ellipse cx="537.3848236581122" cy="499.41034129230104" rx="5.5" ry="5.5" fill="#0f9d76" stroke="#0f9d76" stroke-width="1"/><ellipse cx="493.43517634188777" cy="534.7896587076989" rx="5.5" ry="5.5" fill="#5b5bd6" stroke="#5b5bd6" stroke-width="1"/><ellipse cx="462.86482365811224" cy="582.2103412923011" rx="5.5" ry="5.5" fill="#0f9d76" stroke="#0f9d76" stroke-width="1"/><ellipse cx="418.91517634188773" cy="617.589658707699" rx="5.5" ry="5.5" fill="#5b5bd6" stroke="#5b5bd6" stroke-width="1"/><line x1="592" y1="432" x2="592" y2="662" stroke="#b9b9c9" stroke-width="1.5" stroke-linecap="round" stroke-dasharray="8 6"/><ellipse cx="587.5" cy="455" rx="5.5" ry="5.5" fill="#5b5bd6" stroke="#5b5bd6" stroke-width="1"/><ellipse cx="596.5" cy="496.4" rx="5.5" ry="5.5" fill="#0f9d76" stroke="#0f9d76" stroke-width="1"/><ellipse cx="587.5" cy="537.8" rx="5.5" ry="5.5" fill="#5b5bd6" stroke="#5b5bd6" stroke-width="1"/><ellipse cx="596.5" cy="579.2" rx="5.5" ry="5.5" fill="#0f9d76" stroke="#0f9d76" stroke-width="1"/><ellipse cx="587.5" cy="620.6" rx="5.5" ry="5.5" fill="#5b5bd6" stroke="#5b5bd6" stroke-width="1"/><line x1="592" y1="432" x2="799" y2="662" stroke="#b9b9c9" stroke-width="1.5" stroke-linecap="round" stroke-dasharray="8 6"/><ellipse cx="609.3551763418878" cy="458.010341292301" rx="5.5" ry="5.5" fill="#5b5bd6" stroke="#5b5bd6" stroke-width="1"/><ellipse cx="653.3048236581122" cy="493.3896587076989" rx="5.5" ry="5.5" fill="#0f9d76" stroke="#0f9d76" stroke-width="1"/><ellipse cx="683.8751763418878" cy="540.810341292301" rx="5.5" ry="5.5" fill="#5b5bd6" stroke="#5b5bd6" stroke-width="1"/><ellipse cx="727.8248236581122" cy="576.189658707699" rx="5.5" ry="5.5" fill="#0f9d76" stroke="#0f9d76" stroke-width="1"/><ellipse cx="758.3951763418878" cy="623.6103412923011" rx="5.5" ry="5.5" fill="#5b5bd6" stroke="#5b5bd6" stroke-width="1"/><line x1="592" y1="432" x2="1006" y2="662" stroke="#b9b9c9" stroke-width="1.5" stroke-linecap="round" stroke-dasharray="8 6"/><ellipse cx="631.2146068096961" cy="458.9337077425469" rx="5.5" ry="5.5" fill="#5b5bd6" stroke="#5b5bd6" stroke-width="1"/><ellipse cx="710.105393190304" cy="492.466292257453" rx="5.5" ry="5.5" fill="#0f9d76" stroke="#0f9d76" stroke-width="1"/><ellipse cx="780.2546068096962" cy="541.7337077425469" rx="5.5" ry="5.5" fill="#5b5bd6" stroke="#5b5bd6" stroke-width="1"/><ellipse cx="859.1453931903039" cy="575.2662922574531" rx="5.5" ry="5.5" fill="#0f9d76" stroke="#0f9d76" stroke-width="1"/><ellipse cx="929.2946068096961" cy="624.533707742547" rx="5.5" ry="5.5" fill="#5b5bd6" stroke="#5b5bd6" stroke-width="1"/><rect x="150" y="670" width="56" height="40" rx="10" fill="#ffffff" stroke="#1f1f2e" stroke-width="1.8"/><rect x="169" y="683" width="18" height="14" rx="0" fill="#ffffff" stroke="#1f1f2e" stroke-width="1.3"/><rect x="174" y="688" width="8" height="4" rx="0" fill="#1f1f2e" stroke="#1f1f2e" stroke-width="0.8"/><rect x="142" y="714" width="72" height="5" rx="10" fill="#1f1f2e" stroke="#1f1f2e" stroke-width="1.2"/><rect x="357" y="670" width="56" height="40" rx="10" fill="#ffffff" stroke="#1f1f2e" stroke-width="1.8"/><rect x="376" y="683" width="18" height="14" rx="0" fill="#ffffff" stroke="#1f1f2e" stroke-width="1.3"/><rect x="381" y="688" width="8" height="4" rx="0" fill="#1f1f2e" stroke="#1f1f2e" stroke-width="0.8"/><rect x="349" y="714" width="72" height="5" rx="10" fill="#1f1f2e" stroke="#1f1f2e" stroke-width="1.2"/><rect x="564" y="670" width="56" height="40" rx="10" fill="#ffffff" stroke="#1f1f2e" stroke-width="1.8"/><rect x="583" y="683" width="18" height="14" rx="0" fill="#ffffff" stroke="#1f1f2e" stroke-width="1.3"/><rect x="588" y="688" width="8" height="4" rx="0" fill="#1f1f2e" stroke="#1f1f2e" stroke-width="0.8"/><rect x="556" y="714" width="72" height="5" rx="10" fill="#1f1f2e" stroke="#1f1f2e" stroke-width="1.2"/><rect x="771" y="670" width="56" height="40" rx="10" fill="#ffffff" stroke="#1f1f2e" stroke-width="1.8"/><rect x="790" y="683" width="18" height="14" rx="0" fill="#ffffff" stroke="#1f1f2e" stroke-width="1.3"/><rect x="795" y="688" width="8" height="4" rx="0" fill="#1f1f2e" stroke="#1f1f2e" stroke-width="0.8"/><rect x="763" y="714" width="72" height="5" rx="10" fill="#1f1f2e" stroke="#1f1f2e" stroke-width="1.2"/><rect x="978" y="670" width="56" height="40" rx="10" fill="#ffffff" stroke="#1f1f2e" stroke-width="1.8"/><rect x="997" y="683" width="18" height="14" rx="0" fill="#ffffff" stroke="#1f1f2e" stroke-width="1.3"/><rect x="1002" y="688" width="8" height="4" rx="0" fill="#1f1f2e" stroke="#1f1f2e" stroke-width="0.8"/><rect x="970" y="714" width="72" height="5" rx="10" fill="#1f1f2e" stroke="#1f1f2e" stroke-width="1.2"/><text x="592" y="790.725" text-anchor="middle" font-family="ui-monospace,Menlo,monospace" font-size="15.5" fill="#1f1f2e">WHOLE MODEL PER NODE  ·  4-BIT MLX  ·  ANYWHERE</text><text x="1070" y="813.4" text-anchor="start" font-family="ui-monospace,Menlo,monospace" font-size="12" fill="#8a8a99">FLEETLM</text></svg>